<svg class="animated" id="freepik_stories-calling" xmlns="http://www.w3.org/2000/svg" viewBox="0 0 500 500" version="1.1" xmlns:xlink="http://www.w3.org/1999/xlink" xmlns:svgjs="http://svgjs.com/svgjs"><style>svg#freepik_stories-calling:not(.animated) .animable {opacity: 0;}svg#freepik_stories-calling.animated #freepik--background-complete--inject-40 {animation: 1s 1 forwards cubic-bezier(.36,-0.01,.5,1.38) slideRight;animation-delay: 0s;}svg#freepik_stories-calling.animated #freepik--Shadow--inject-40 {animation: 1s 1 forwards cubic-bezier(.36,-0.01,.5,1.38) slideUp;animation-delay: 0s;}svg#freepik_stories-calling.animated #freepik--Device--inject-40 {animation: 1s 1 forwards cubic-bezier(.36,-0.01,.5,1.38) slideUp,3s Infinite  linear floating;animation-delay: 0s,1s;}svg#freepik_stories-calling.animated #freepik--Character--inject-40 {animation: 1s 1 forwards cubic-bezier(.36,-0.01,.5,1.38) fadeIn,3s Infinite  linear floating;animation-delay: 0s,1s;}            @keyframes slideRight {                0% {                    opacity: 0;                    transform: translateX(30px);                }                100% {                    opacity: 1;                    transform: translateX(0);                }            }                    @keyframes slideUp {                0% {                    opacity: 0;                    transform: translateY(30px);                }                100% {                    opacity: 1;                    transform: inherit;                }            }                    @keyframes floating {                0% {                    opacity: 1;                    transform: translateY(0px);                }                50% {                    transform: translateY(-10px);                }                100% {                    opacity: 1;                    transform: translateY(0px);                }            }                    @keyframes fadeIn {                0% {                    opacity: 0;                }                100% {                    opacity: 1;                }            }        </style><g id="freepik--background-complete--inject-40" class="animable" style="transform-origin: 250px 228.23px;"><path d="M406.46,239.47l-25.14-7.77,28.08,1.48c-6.16-10.71-8.92-16-13.79-26.26,7,8,10.68,12.06,18.35,20.3a232.59,232.59,0,0,1,8.75-35.09,150.91,150.91,0,0,0-2.4,30.89l.52.1a251.17,251.17,0,0,1,27.05-26.45,203.1,203.1,0,0,0-24.49,32.25Q439.08,223,455,217.65c-10.65,5.82-21,11.8-31.4,18.1l26,8.28-26.89-1.62c5.66,6.63,8.6,10,14.7,16.7-7.56-5-11.29-7.48-18.67-12.43a171.65,171.65,0,0,0,3.7,20.53c-3.68-8.38-5.3-12.55-8.14-20.78-5.27,25.25-3.91,49.72,1.2,74.82l-6.33-1.14a196.48,196.48,0,0,1,3-74.08c-6.37,6.58-9.35,9.91-14.87,16.64A170,170,0,0,1,408,244.73c-9.05,2-13.54,3-22.41,5C393.7,245.59,397.88,243.53,406.46,239.47Z" style="fill: rgb(235, 235, 235); transform-origin: 418.16px 256.69px;" id="ell6mk8hxi9kh" class="animable"></path><path d="M397.54,248.19l23.25-12.33-27.31,6.7c4-11.67,5.77-17.37,8.65-28.37-5.4,9.17-8.25,13.85-14.25,23.37a231.25,231.25,0,0,0-15.14-32.84,151,151,0,0,1,8.13,29.9l-.5.19a251.79,251.79,0,0,0-31.51-20.93A202.58,202.58,0,0,1,378.94,241c-11-1.93-22.09-3.65-33.17-5.17,11.55,3.73,22.87,7.66,34.22,11.92l-24,13,26.11-6.61c-4.32,7.57-6.58,11.4-11.32,19.15,6.49-6.32,9.7-9.46,16-15.7a170.19,170.19,0,0,1,.2,20.86c2.05-8.92,2.87-13.32,4.11-21.94,9.9,23.83,13.13,48.13,12.8,73.74l6-2.3a196.53,196.53,0,0,0-16.74-72.22c7.48,5.26,11,8,17.71,13.56A170,170,0,0,0,397,253.64c9.26.26,13.86.41,22.95.74C411.22,251.82,406.73,250.58,397.54,248.19Z" style="fill: rgb(240, 240, 240); transform-origin: 383.28px 267.485px;" id="el1fmdflo7wf9" class="animable"></path><path d="M420.28,262l-16.95-9,19.91,4.89c-2.95-8.51-4.21-12.67-6.3-20.69,3.93,6.68,6,10.1,10.38,17a169.49,169.49,0,0,1,11-23.94,110.36,110.36,0,0,0-5.92,21.8l.36.14a182.33,182.33,0,0,1,23-15.26,147.39,147.39,0,0,0-21.93,19.76q12-2.1,24.18-3.77c-8.41,2.72-16.67,5.59-24.95,8.69l17.5,9.47-19-4.82c3.15,5.52,4.8,8.31,8.25,14-4.73-4.6-7.07-6.89-11.68-11.44a124.05,124.05,0,0,0-.14,15.21c-1.5-6.51-2.09-9.72-3-16-7.22,17.37-9.57,35.09-9.33,53.76l-4.37-1.68a143,143,0,0,1,12.2-52.65c-5.45,3.84-8,5.82-12.91,9.89A124,124,0,0,1,420.65,266c-6.76.19-10.1.3-16.73.54C410.31,264.68,413.59,263.77,420.28,262Z" style="fill: rgb(245, 245, 245); transform-origin: 430.67px 276.03px;" id="elow60zlq12x" class="animable"></path><polygon points="426.85 382.4 385.99 382.4 381.99 317.31 430.85 317.31 426.85 382.4" style="fill: rgb(235, 235, 235); transform-origin: 406.42px 349.855px;" id="elmzaqay54vga" class="animable"></polygon><polygon points="434.02 320.67 378.42 320.67 377.42 312.01 435.02 312.01 434.02 320.67" style="fill: rgb(245, 245, 245); transform-origin: 406.22px 316.34px;" id="el2fxnqmgsqc8" class="animable"></polygon><g id="elj41ts9wb16j"><circle cx="260.25" cy="158.96" r="62.79" style="fill: rgb(245, 245, 245); transform-origin: 260.25px 158.96px; transform: rotate(-45deg);" class="animable"></circle></g><circle cx="260.25" cy="158.96" r="53.25" style="fill: rgb(235, 235, 235); transform-origin: 260.25px 158.96px;" id="elhi7ayvpwzsk" class="animable"></circle><path d="M260.25,105.71c-.83,0-1.67,0-2.5.06a53.25,53.25,0,0,1,0,106.38c.83,0,1.67.06,2.5.06a53.25,53.25,0,0,0,0-106.5Z" style="fill: rgb(230, 230, 230); transform-origin: 285.625px 158.96px;" id="elwd90pb4gc0m" class="animable"></path><path d="M260.27,212.15h0c1.35-.07,2.68-.19,4-.35V163h46.59c.1-1.32.16-2.65.16-4s-.06-2.68-.16-4H264.25V106.13c-1.32-.17-2.65-.29-4-.36h-4V155H207.07v8h49.18v49.19Z" style="fill: rgb(250, 250, 250); transform-origin: 259.045px 158.98px;" id="el4wyj7kziuqq" class="animable"></path><rect x="252.25" y="105.77" width="4" height="49.19" style="fill: rgb(230, 230, 230); transform-origin: 254.25px 130.365px;" id="el8qb20zquz5b" class="animable"></rect><rect x="252.25" y="162.96" width="4" height="49.19" style="fill: rgb(230, 230, 230); transform-origin: 254.25px 187.555px;" id="el52hyt3wa4eq" class="animable"></rect><g id="elsdeedhtszy"><rect x="78.39" y="249.85" width="69.17" height="125.73" style="fill: rgb(240, 240, 240); transform-origin: 112.975px 312.715px; transform: rotate(180deg);" class="animable"></rect></g><g id="el1xhwymtk1kf"><rect x="58.82" y="249.85" width="19.57" height="125.73" style="fill: rgb(230, 230, 230); transform-origin: 68.605px 312.715px; transform: rotate(180deg);" class="animable"></rect></g><g id="elij071bpekur"><rect x="85.05" y="259.98" width="55.33" height="33.15" style="fill: rgb(250, 250, 250); transform-origin: 112.715px 276.555px; transform: rotate(180deg);" class="animable"></rect></g><g id="elyw3zsa1xbkh"><rect x="85.05" y="296.76" width="55.33" height="33.15" style="fill: rgb(250, 250, 250); transform-origin: 112.715px 313.335px; transform: rotate(180deg);" class="animable"></rect></g><g id="elkslh855gfxn"><rect x="85.05" y="333.53" width="55.33" height="33.15" style="fill: rgb(250, 250, 250); transform-origin: 112.715px 350.105px; transform: rotate(180deg);" class="animable"></rect></g><polygon points="85.05 382.4 139.31 382.4 140.38 375.57 85.05 375.57 85.05 382.4" style="fill: rgb(230, 230, 230); transform-origin: 112.715px 378.985px;" id="el4p1hr1cdojq" class="animable"></polygon><polygon points="66.73 382.4 85.05 382.4 85.05 375.57 65.65 375.57 66.73 382.4" style="fill: rgb(224, 224, 224); transform-origin: 75.35px 378.985px;" id="elm717enh8ol" class="animable"></polygon><polygon points="103.2 249.85 104.84 231.18 81.16 231.18 79.52 249.85 103.2 249.85" style="fill: rgb(240, 240, 240); transform-origin: 92.18px 240.515px;" id="eld3le4a42uo" class="animable"></polygon><polygon points="103.2 249.85 104.84 231.18 106.11 231.18 104.48 249.85 103.2 249.85" style="fill: rgb(224, 224, 224); transform-origin: 104.655px 240.515px;" id="elnm0i64j8e5" class="animable"></polygon><polygon points="100.96 247.95 102.26 233.09 83.4 233.09 82.1 247.95 100.96 247.95" style="fill: rgb(250, 250, 250); transform-origin: 92.18px 240.52px;" id="elnkyrmoyldnh" class="animable"></polygon><polygon points="99.51 246.73 100.6 234.31 84.85 234.31 83.76 246.73 99.51 246.73" style="fill: rgb(230, 230, 230); transform-origin: 92.18px 240.52px;" id="elmzig8sex9f" class="animable"></polygon><circle cx="113.61" cy="267.36" r="3.69" style="fill: rgb(224, 224, 224); transform-origin: 113.61px 267.36px;" id="elf3ddq5z8bgi" class="animable"></circle><circle cx="115.51" cy="267.36" r="3.69" style="fill: rgb(240, 240, 240); transform-origin: 115.51px 267.36px;" id="el3clwve9fri4" class="animable"></circle><circle cx="113.61" cy="303.99" r="3.69" style="fill: rgb(224, 224, 224); transform-origin: 113.61px 303.99px;" id="elhx8erc5jq1" class="animable"></circle><circle cx="115.51" cy="303.99" r="3.69" style="fill: rgb(240, 240, 240); transform-origin: 115.51px 303.99px;" id="elusedpuxo4rp" class="animable"></circle><circle cx="113.61" cy="340.62" r="3.69" style="fill: rgb(224, 224, 224); transform-origin: 113.61px 340.62px;" id="elkdev3bdls0c" class="animable"></circle><circle cx="115.51" cy="340.62" r="3.69" style="fill: rgb(240, 240, 240); transform-origin: 115.51px 340.62px;" id="el5l31ezoy37u" class="animable"></circle><polygon points="129.9 249.85 106.11 249.85 108.75 219.69 132.54 219.69 129.9 249.85" style="fill: rgb(230, 230, 230); transform-origin: 119.325px 234.77px;" id="elfdy135x6657" class="animable"></polygon><polygon points="129.9 249.85 131.04 249.85 133.68 219.69 132.54 219.69 129.9 249.85" style="fill: rgb(224, 224, 224); transform-origin: 131.79px 234.77px;" id="ela05ngnjt4sj" class="animable"></polygon><polygon points="127.75 246.78 108.81 246.78 110.91 222.76 129.85 222.76 127.75 246.78" style="fill: rgb(240, 240, 240); transform-origin: 119.33px 234.77px;" id="el5gmdm7y5vsf" class="animable"></polygon><polygon points="126.36 244.8 110.54 244.8 112.3 224.74 128.12 224.74 126.36 244.8" style="fill: rgb(250, 250, 250); transform-origin: 119.33px 234.77px;" id="elz53wri5ec7" class="animable"></polygon><g id="elu20c7mx55bc"><rect x="117.56" y="229.07" width="5.5" height="5.5" style="fill: rgb(235, 235, 235); transform-origin: 120.31px 231.82px; transform: rotate(-135deg);" class="animable"></rect></g><polygon points="122.97 240.58 118.11 235.71 113.24 240.58 122.97 240.58" style="fill: rgb(240, 240, 240); transform-origin: 118.105px 238.145px;" id="elrkufg97kev" class="animable"></polygon><rect x="416.78" y="398.49" width="33.12" height="0.25" style="fill: rgb(235, 235, 235); transform-origin: 433.34px 398.615px;" id="elz2vcct2nfec" class="animable"></rect><rect x="322.53" y="401.21" width="8.69" height="0.25" style="fill: rgb(235, 235, 235); transform-origin: 326.875px 401.335px;" id="elaws2tqcovgl" class="animable"></rect><rect x="396.59" y="389.21" width="19.19" height="0.25" style="fill: rgb(235, 235, 235); transform-origin: 406.185px 389.335px;" id="elyc1wtolqdi7" class="animable"></rect><rect x="52.46" y="390.89" width="43.19" height="0.25" style="fill: rgb(235, 235, 235); transform-origin: 74.055px 391.015px;" id="eloaeik14g4xp" class="animable"></rect><rect x="104.56" y="390.89" width="6.33" height="0.25" style="fill: rgb(235, 235, 235); transform-origin: 107.725px 391.015px;" id="elc10cjweoie9" class="animable"></rect><rect x="131.47" y="395.11" width="93.68" height="0.25" style="fill: rgb(235, 235, 235); transform-origin: 178.31px 395.235px;" id="elha09piyu8we" class="animable"></rect><path d="M237,337.8H43.92a5.71,5.71,0,0,1-5.71-5.71V60.66A5.71,5.71,0,0,1,43.92,55H237a5.71,5.71,0,0,1,5.71,5.71V332.09A5.71,5.71,0,0,1,237,337.8ZM43.92,55.2a5.47,5.47,0,0,0-5.46,5.46V332.09a5.47,5.47,0,0,0,5.46,5.46H237a5.47,5.47,0,0,0,5.46-5.46V60.66A5.47,5.47,0,0,0,237,55.2Z" style="fill: rgb(235, 235, 235); transform-origin: 140.46px 196.4px;" id="el5z8r8c9vjk9" class="animable"></path><path d="M453.31,337.8H260.21a5.72,5.72,0,0,1-5.71-5.71V60.66A5.72,5.72,0,0,1,260.21,55h193.1A5.71,5.71,0,0,1,459,60.66V332.09A5.71,5.71,0,0,1,453.31,337.8ZM260.21,55.2a5.47,5.47,0,0,0-5.46,5.46V332.09a5.47,5.47,0,0,0,5.46,5.46h193.1a5.47,5.47,0,0,0,5.46-5.46V60.66a5.47,5.47,0,0,0-5.46-5.46Z" style="fill: rgb(235, 235, 235); transform-origin: 356.75px 196.4px;" id="elfpa5xt8smbe" class="animable"></path><rect y="382.4" width="500" height="0.25" style="fill: rgb(235, 235, 235); transform-origin: 250px 382.525px;" id="elnfqwb1rym0n" class="animable"></rect></g><g id="freepik--Shadow--inject-40" class="animable" style="transform-origin: 245.18px 412.39px;"><ellipse id="freepik--path--inject-40" cx="245.18" cy="412.39" rx="193.89" ry="11.32" style="fill: rgb(245, 245, 245); transform-origin: 245.18px 412.39px;" class="animable"></ellipse></g><g id="freepik--Device--inject-40" class="animable" style="transform-origin: 331.221px 231.54px;"><path d="M386.33,103.59h-7.69a13.18,13.18,0,0,1,13.29,14L379.68,351.2a14.93,14.93,0,0,1-14.75,14h7.69a14.94,14.94,0,0,0,14.76-14l12.24-233.58A13.17,13.17,0,0,0,386.33,103.59Z" style="fill: rgb(64, 123, 255); transform-origin: 382.289px 234.395px;" id="el8fsfndytmxv" class="animable"></path><g id="el6sh6oy6juln"><path d="M386.33,103.59h-7.69a13.18,13.18,0,0,1,13.29,14L379.68,351.2a14.93,14.93,0,0,1-14.75,14h7.69a14.94,14.94,0,0,0,14.76-14l12.24-233.58A13.17,13.17,0,0,0,386.33,103.59Z" style="fill: rgb(255, 255, 255); opacity: 0.1; transform-origin: 382.289px 234.395px;" class="animable"></path></g><path d="M370.33,365.22H276.11a13.16,13.16,0,0,1-13.29-14l12.24-233.58a15,15,0,0,1,14.76-14H384a13.18,13.18,0,0,1,13.29,14L385.08,351.2A14.93,14.93,0,0,1,370.33,365.22Z" style="fill: rgb(64, 123, 255); transform-origin: 330.054px 234.43px;" id="elk8grisaxx4" class="animable"></path><g id="els8yrmcqdqws"><path d="M370.33,365.22H276.11a13.16,13.16,0,0,1-13.29-14l12.24-233.58a15,15,0,0,1,14.76-14H384a13.18,13.18,0,0,1,13.29,14L385.08,351.2A14.93,14.93,0,0,1,370.33,365.22Z" style="fill: rgb(255, 255, 255); opacity: 0.4; transform-origin: 330.054px 234.43px;" class="animable"></path></g><path d="M326.05,99.06h15.69c.77,0,.87-1.2.1-1.2H326.16c-.77,0-.88,1.2-.11,1.2Z" style="fill: rgb(64, 123, 255); transform-origin: 333.947px 98.46px;" id="el0ulmzbq83nte" class="animable"></path><path d="M347.48,99.06H352c.77,0,.87-1.2.1-1.2h-4.5c-.78,0-.88,1.2-.11,1.2Z" style="fill: rgb(64, 123, 255); transform-origin: 349.796px 98.46px;" id="elfkfvxrzq31" class="animable"></path><g id="elb61sbgqyu6o"><g style="opacity: 0.3; transform-origin: 333.947px 98.46px;" class="animable"><path d="M326.05,99.06h15.69c.77,0,.87-1.2.1-1.2H326.16c-.77,0-.88,1.2-.11,1.2Z" style="fill: rgb(255, 255, 255); transform-origin: 333.947px 98.46px;" id="elipd4ls52q8" class="animable"></path></g></g><g id="el53ht7el5hw8"><g style="opacity: 0.3; transform-origin: 349.796px 98.46px;" class="animable"><path d="M347.48,99.06H352c.77,0,.87-1.2.1-1.2h-4.5c-.78,0-.88,1.2-.11,1.2Z" style="fill: rgb(255, 255, 255); transform-origin: 349.796px 98.46px;" id="el9mq16zn5hha" class="animable"></path></g></g><path d="M290.15,108.09a10.41,10.41,0,0,0-10.26,9.76L267.65,351.44a8.66,8.66,0,0,0,8.79,9.28h94.22A10.4,10.4,0,0,0,380.92,351l12.25-233.58a8.69,8.69,0,0,0-8.8-9.29Z" style="fill: rgb(64, 123, 255); transform-origin: 330.409px 234.406px;" id="elc7b1l8db724" class="animable"></path><path d="M337.44,332.19A12.57,12.57,0,0,1,325,344a11.08,11.08,0,0,1-11.18-11.8,12.58,12.58,0,0,1,12.42-11.8A11.09,11.09,0,0,1,337.44,332.19Z" style="fill: rgb(255, 255, 255); transform-origin: 325.629px 332.2px;" id="elgxc4ro9yi8v" class="animable"></path><path d="M332.93,331.12c-3.48-2.43-10.73-2.43-14.47,0a3,3,0,0,0-2.48,2.79c-.08,1.57,6.43,1.57,6.51,0a2.68,2.68,0,0,0-.55-1.78,17.79,17.79,0,0,1,7.41,0,2.91,2.91,0,0,0-.74,1.78c-.08,1.57,6.43,1.57,6.51,0A2.67,2.67,0,0,0,332.93,331.12Z" style="fill: rgb(64, 123, 255); transform-origin: 325.552px 332.193px;" id="elu6yu1mrf65" class="animable"></path><g id="eln9k9p5ka3ls"><path d="M332.93,331.12c-3.48-2.43-10.73-2.43-14.47,0a3,3,0,0,0-2.48,2.79c-.08,1.57,6.43,1.57,6.51,0a2.68,2.68,0,0,0-.55-1.78,17.79,17.79,0,0,1,7.41,0,2.91,2.91,0,0,0-.74,1.78c-.08,1.57,6.43,1.57,6.51,0A2.67,2.67,0,0,0,332.93,331.12Z" style="opacity: 0.2; transform-origin: 325.552px 332.193px;" class="animable"></path></g><path d="M325.28,194.61c0,.88-.65,1.39-1.65,1.39a1.42,1.42,0,0,1-1.48-.85l0-.13-.69.4,0,.1a2.12,2.12,0,0,0,2.14,1.24,2.25,2.25,0,0,0,2.48-2.15l.28-5.2h-.79Z" style="fill: rgb(255, 255, 255); transform-origin: 323.91px 193.091px;" id="el7727q7uz2bh" class="animable"></path><path d="M329.89,191.29A2.9,2.9,0,0,0,327,194a2.55,2.55,0,0,0,2.61,2.73,2.89,2.89,0,0,0,2.88-2.73A2.55,2.55,0,0,0,329.89,191.29Zm-.25,4.74a1.85,1.85,0,0,1-1.88-2,2.1,2.1,0,0,1,2.09-2,1.85,1.85,0,0,1,1.88,2A2.1,2.1,0,0,1,329.64,196Z" style="fill: rgb(255, 255, 255); transform-origin: 329.744px 194.01px;" id="elkz5ffervc37" class="animable"></path><path d="M336,191.29a2.13,2.13,0,0,0-1.7.76l.14-2.64h-.75l-.38,7.24h.75l.14-2.76c.06-1.17.71-1.87,1.72-1.87a1.2,1.2,0,0,1,1.28,1.4l-.17,3.23h.76l.17-3.23A1.86,1.86,0,0,0,336,191.29Z" style="fill: rgb(255, 255, 255); transform-origin: 335.645px 193.03px;" id="ellcsg796gpjh" class="animable"></path><path d="M341.64,191.29a2.13,2.13,0,0,0-1.7.76l0-.65h-.75l-.27,5.25h.75l.14-2.76c.06-1.17.71-1.87,1.72-1.87a1.2,1.2,0,0,1,1.28,1.4l-.17,3.23h.76l.17-3.23A1.86,1.86,0,0,0,341.64,191.29Z" style="fill: rgb(255, 255, 255); transform-origin: 341.255px 193.969px;" id="el2qakaiih8wu" class="animable"></path><g id="elxaon8du8e9"><ellipse cx="334.31" cy="159.96" rx="22" ry="20.88" style="fill: rgb(255, 255, 255); transform-origin: 334.31px 159.96px; transform: rotate(-44.25deg);" class="animable"></ellipse></g><g id="el52uw26dfejf"><ellipse cx="334.31" cy="159.96" rx="20.32" ry="19.28" style="fill: rgb(64, 123, 255); transform-origin: 334.31px 159.96px; transform: rotate(-44.25deg);" class="animable"></ellipse></g><g id="eltpqdohpegr"><ellipse cx="334.31" cy="159.96" rx="20.32" ry="19.28" style="fill: rgb(255, 255, 255); opacity: 0.7; transform-origin: 334.31px 159.96px; transform: rotate(-44.25deg);" class="animable"></ellipse></g><g id="elwrw3aykjbu"><path d="M333.27,179.75a21,21,0,0,0,17-8.94c-4.38-3.76-13.48-.2-18.32.91-3.68.85-6.51,3.55-8.17,5.55A19,19,0,0,0,333.27,179.75Z" style="fill: rgb(255, 255, 255); opacity: 0.7; transform-origin: 337.025px 174.439px;" class="animable"></path></g><path d="M328.22,150.51s-5.64-1.74-8.26,2.79l4.22-.89s-3.39,2.3-.14,8c0,0-.85-5,2.84-6S328.22,150.51,328.22,150.51Z" style="fill: rgb(38, 50, 56); transform-origin: 324.459px 155.296px;" id="els79i12mg12r" class="animable"></path><g id="el7r3bdhi77rg"><path d="M328.22,150.51s-5.64-1.74-8.26,2.79l4.22-.89s-3.39,2.3-.14,8c0,0-.85-5,2.84-6S328.22,150.51,328.22,150.51Z" style="opacity: 0.3; transform-origin: 324.459px 155.296px;" class="animable"></path></g><path d="M330.8,174.47a4.29,4.29,0,0,1,1.25-2.45,3.66,3.66,0,0,0-.78-2.4l8.06-6.43c.3,3.23.55,5.78,2.17,6.76-1.41,1.78-4,5-7.58,6.29S330.65,175.93,330.8,174.47Z" style="fill: rgb(181, 91, 82); transform-origin: 336.11px 169.952px;" id="elnah4akzngr" class="animable"></path><g id="elhjdpoynnou6"><path d="M332,171.68c5.15-.8,6.51-6.57,6.51-6.57l-4.77,2.52-2.5,2A3.61,3.61,0,0,1,332,171.68Z" style="opacity: 0.1; transform-origin: 334.875px 168.395px;" class="animable"></path></g><path d="M339.67,155.74c.31,4.89.4,8.23-2.34,10.93-5.46,5.38-9.37,3.53-11.26-1-1.68-4.1-1.9-11.41,2.94-14.41S339.36,150.84,339.67,155.74Z" style="fill: rgb(181, 91, 82); transform-origin: 332.403px 159.97px;" id="elpc8ibrty27b" class="animable"></path><path d="M329.68,158.83c-.07-.42.11-.81.38-.87s.56.24.63.66-.1.81-.38.87S329.75,159.25,329.68,158.83Z" style="fill: rgb(38, 50, 56); transform-origin: 330.185px 158.725px;" id="elxsp5izknbqi" class="animable"></path><path d="M326.31,159.63c.07.42-.11.81-.36.85s-.56-.24-.62-.66.1-.81.36-.85S326.25,159.21,326.31,159.63Z" style="fill: rgb(38, 50, 56); transform-origin: 325.821px 159.725px;" id="eltrgip7qq7yb" class="animable"></path><path d="M327.83,159.67l.58,3.53a4.17,4.17,0,0,1-1.25.31.44.44,0,0,1-.46-.46.46.46,0,0,1,.09-.27A8.93,8.93,0,0,0,327.83,159.67Z" style="fill: rgb(160, 39, 36); transform-origin: 327.555px 161.59px;" id="elmqgz3216luf" class="animable"></path><path d="M332.79,157a.16.16,0,0,0,.11-.05.23.23,0,0,0,0-.34h0a2.44,2.44,0,0,0-2.21-.62.26.26,0,0,0-.2.3h0a.26.26,0,0,0,.3.18h0a2,2,0,0,1,1.74.51A.22.22,0,0,0,332.79,157Z" style="fill: rgb(38, 50, 56); transform-origin: 331.73px 156.483px;" id="el7pf45zge3zu" class="animable"></path><path d="M324.44,158.83a.3.3,0,0,0,.19-.16,2.12,2.12,0,0,1,1.39-1.25.28.28,0,0,0,.21-.3.26.26,0,0,0-.29-.2,2.67,2.67,0,0,0-1.77,1.57.23.23,0,0,0,.1.32h0A.29.29,0,0,0,324.44,158.83Z" style="fill: rgb(38, 50, 56); transform-origin: 325.186px 157.876px;" id="el6zqtww1jn4h" class="animable"></path><path d="M326.88,165.19a37.73,37.73,0,0,1,6.67-2,4.32,4.32,0,0,1-3.71,3.66,2.24,2.24,0,0,1-2.91-1.46C326.91,165.33,326.9,165.26,326.88,165.19Z" style="fill: rgb(38, 50, 56); transform-origin: 330.215px 165.087px;" id="elklqoqoysto" class="animable"></path><path d="M330.79,165.4a5.05,5.05,0,0,0-2.64,1.38,2.83,2.83,0,0,0,1.68.06,4.94,4.94,0,0,0,2.63-1.37A2.72,2.72,0,0,0,330.79,165.4Z" style="fill: rgb(160, 39, 36); transform-origin: 330.305px 166.12px;" id="el70vrykspsy5" class="animable"></path><path d="M327.1,165.1a1,1,0,0,0,.92.55,30.44,30.44,0,0,0,4.33-1.42,1.56,1.56,0,0,0,1-1A44,44,0,0,0,327.1,165.1Z" style="fill: rgb(255, 255, 255); transform-origin: 330.225px 164.44px;" id="elem8ndgishtl" class="animable"></path><path d="M338.66,161.82s-6.27-3.37-2.77-7.39,6.72.53,6.14,3.53A5.25,5.25,0,0,1,338.66,161.82Z" style="fill: rgb(38, 50, 56); transform-origin: 338.463px 157.333px;" id="elj9wf9o2xtd" class="animable"></path><g id="elapufxfm7h25"><path d="M338.66,161.82s-6.27-3.37-2.77-7.39,6.72.53,6.14,3.53A5.25,5.25,0,0,1,338.66,161.82Z" style="opacity: 0.2; transform-origin: 338.463px 157.333px;" class="animable"></path></g><path d="M342.41,160.52a5.39,5.39,0,0,1-2.78,2.78c-1.65.71-2.64-.68-2.32-2.32.29-1.49,1.5-3.64,3.22-3.65a2.14,2.14,0,0,1,2.12,2.3A2.31,2.31,0,0,1,342.41,160.52Z" style="fill: rgb(181, 91, 82); transform-origin: 339.953px 160.41px;" id="elwpnughxid2a" class="animable"></path><path d="M331.13,146.71s-7-2.61-7.29,2.78,9.89,7.69,13.64,7.51,5.33,1,5.33,1,.27-4.41-.88-6.2S340.38,144.45,331.13,146.71Z" style="fill: rgb(38, 50, 56); transform-origin: 333.336px 152.039px;" id="elo687nd92be" class="animable"></path><path d="M321.07,125.54a3,3,0,0,1,3.06-2.89,2.56,2.56,0,0,1,2.33,1.35l-.38.21a2.16,2.16,0,0,0-2-1.15,2.57,2.57,0,0,0-2.61,2.48,2.27,2.27,0,0,0,2.35,2.48,2.41,2.41,0,0,0,2.1-1.18l.37.22a2.92,2.92,0,0,1-2.49,1.37A2.67,2.67,0,0,1,321.07,125.54Z" style="fill: rgb(255, 255, 255); transform-origin: 323.76px 125.54px;" id="eljmf9ygxsb4" class="animable"></path><path d="M331.27,124.34l-.21,4h-.41l.05-.9a2.06,2.06,0,0,1-1.77,1,1.94,1.94,0,0,1-2-2.09,2.2,2.2,0,0,1,2.18-2.09,1.8,1.8,0,0,1,1.66,1l.05-.9Zm-.51,2a1.58,1.58,0,0,0-1.6-1.7,1.8,1.8,0,0,0-1.79,1.7A1.58,1.58,0,0,0,329,128,1.79,1.79,0,0,0,330.76,126.34Z" style="fill: rgb(255, 255, 255); transform-origin: 329.097px 126.35px;" id="elfn2aiajba9g" class="animable"></path><path d="M332.6,122.5h.4l-.31,5.84h-.4Z" style="fill: rgb(255, 255, 255); transform-origin: 332.645px 125.42px;" id="elgnomafbn1yg" class="animable"></path><path d="M334.23,122.5h.4l-.31,5.84h-.4Z" style="fill: rgb(255, 255, 255); transform-origin: 334.275px 125.42px;" id="elo7tfp4gq2cd" class="animable"></path><path d="M335.71,123.05a.35.35,0,0,1,.34-.31.3.3,0,0,1,.3.31.34.34,0,0,1-.33.32A.3.3,0,0,1,335.71,123.05Zm.06,1.29h.4l-.21,4h-.4Z" style="fill: rgb(255, 255, 255); transform-origin: 335.955px 125.54px;" id="ell65lnkx8w1m" class="animable"></path><path d="M340.7,125.85l-.13,2.49h-.41l.13-2.49a1,1,0,0,0-1.11-1.21,1.47,1.47,0,0,0-1.48,1.59l-.11,2.11h-.4l.21-4h.4l0,.76a1.6,1.6,0,0,1,1.47-.85A1.39,1.39,0,0,1,340.7,125.85Z" style="fill: rgb(255, 255, 255); transform-origin: 338.953px 126.294px;" id="elvn3sfmphp5" class="animable"></path><path d="M345.86,124.34l-.2,3.81a2,2,0,0,1-2.09,1.88,1.88,1.88,0,0,1-1.84-1l.37-.2a1.44,1.44,0,0,0,1.49.77,1.52,1.52,0,0,0,1.67-1.49l0-.74a2,2,0,0,1-1.77,1,1.93,1.93,0,0,1-2-2.09,2.19,2.19,0,0,1,2.18-2.09,1.77,1.77,0,0,1,1.66,1l0-.93Zm-.51,2a1.58,1.58,0,0,0-1.6-1.7,1.8,1.8,0,0,0-1.79,1.7,1.58,1.58,0,0,0,1.61,1.7A1.79,1.79,0,0,0,345.35,126.34Z" style="fill: rgb(255, 255, 255); transform-origin: 343.672px 127.113px;" id="elr2bvqzj9wq" class="animable"></path><path d="M346.78,128.06a.38.38,0,0,1,.38-.36.34.34,0,0,1,.34.36.38.38,0,0,1-.38.36A.33.33,0,0,1,346.78,128.06Z" style="fill: rgb(255, 255, 255); transform-origin: 347.14px 128.06px;" id="el16op870stuo" class="animable"></path><path d="M348.48,128.06a.38.38,0,0,1,.38-.36.34.34,0,0,1,.34.36.38.38,0,0,1-.38.36A.34.34,0,0,1,348.48,128.06Z" style="fill: rgb(255, 255, 255); transform-origin: 348.84px 128.06px;" id="elqjzyi2h2x9s" class="animable"></path><path d="M350.19,128.06a.38.38,0,0,1,.38-.36.34.34,0,0,1,.34.36.38.38,0,0,1-.38.36A.33.33,0,0,1,350.19,128.06Z" style="fill: rgb(255, 255, 255); transform-origin: 350.55px 128.06px;" id="eli2cmvlkqps8" class="animable"></path><path d="M288.05,252.86h-1.11l-.07,1.44h-.27l.18-3.5h1.39a1,1,0,0,1,1,1,1.11,1.11,0,0,1-.83,1l.8,1.47h-.31Zm-1.1-.25h1.12a.82.82,0,0,0,.81-.78.73.73,0,0,0-.73-.78H287Z" style="fill: rgb(255, 255, 255); transform-origin: 287.885px 252.55px;" id="elv9bhvzjfov" class="animable"></path><path d="M291.92,253.06s0,.08,0,.12h-2.27a1,1,0,0,0,1,.94,1,1,0,0,0,.89-.46l.21.13a1.3,1.3,0,0,1-1.12.57,1.19,1.19,0,0,1-1.24-1.31,1.33,1.33,0,0,1,1.36-1.31A1.19,1.19,0,0,1,291.92,253.06Zm-2.27-.13h2a.91.91,0,0,0-.92-1A1.08,1.08,0,0,0,289.65,252.93Z" style="fill: rgb(255, 255, 255); transform-origin: 290.655px 253.05px;" id="elsyb83bkxzcl" class="animable"></path><path d="M292.33,253.05a1.37,1.37,0,0,1,1.39-1.31,1.09,1.09,0,0,1,1,.64l-.21.12a.91.91,0,0,0-.86-.52,1.11,1.11,0,0,0-1.11,1.07,1,1,0,0,0,1,1.07,1.07,1.07,0,0,0,.93-.53l.2.13a1.32,1.32,0,0,1-1.14.64A1.21,1.21,0,0,1,292.33,253.05Z" style="fill: rgb(255, 255, 255); transform-origin: 293.523px 253.05px;" id="el0dxfrutpux3k" class="animable"></path><path d="M295.11,253.05a1.39,1.39,0,0,1,1.39-1.31,1.22,1.22,0,0,1,1.24,1.31,1.39,1.39,0,0,1-1.38,1.31A1.22,1.22,0,0,1,295.11,253.05Zm2.37,0a1,1,0,0,0-1-1.07,1.12,1.12,0,0,0-1.11,1.07,1,1,0,0,0,1,1.07A1.12,1.12,0,0,0,297.48,253.05Z" style="fill: rgb(255, 255, 255); transform-origin: 296.425px 253.05px;" id="elwajhr409kta" class="animable"></path><path d="M299.49,251.76V252a.87.87,0,0,0-.89.91l-.07,1.39h-.25l.13-2.5h.25l0,.49A.89.89,0,0,1,299.49,251.76Z" style="fill: rgb(255, 255, 255); transform-origin: 298.885px 253.03px;" id="elk8vmaxswpl" class="animable"></path><path d="M302.35,250.8l-.18,3.5h-.25l0-.58a1.29,1.29,0,0,1-1.11.64,1.21,1.21,0,0,1-1.23-1.31,1.38,1.38,0,0,1,1.37-1.31,1.12,1.12,0,0,1,1,.64l.08-1.58Zm-.37,2.25a1,1,0,0,0-1-1.07,1.12,1.12,0,0,0-1.12,1.07,1,1,0,0,0,1,1.07A1.13,1.13,0,0,0,302,253.05Z" style="fill: rgb(255, 255, 255); transform-origin: 300.963px 252.58px;" id="elixhf4nmr5hi" class="animable"></path><g id="elaj5vvx9q91e"><g style="opacity: 0.6; transform-origin: 329.49px 252.515px;" class="animable"><path d="M322.49,250.8l-.18,3.5H322l.09-1.68h-2L320,254.3h-.27l.19-3.5h.26l-.08,1.57h2l.08-1.57Z" style="fill: rgb(255, 255, 255); transform-origin: 321.11px 252.55px;" id="elta7fzhy5yp" class="animable"></path><path d="M323,253.05a1.39,1.39,0,0,1,1.39-1.31,1.22,1.22,0,0,1,1.24,1.31,1.38,1.38,0,0,1-1.38,1.31A1.22,1.22,0,0,1,323,253.05Zm2.37,0a1,1,0,0,0-1-1.07,1.12,1.12,0,0,0-1.11,1.07,1,1,0,0,0,1,1.07A1.12,1.12,0,0,0,325.39,253.05Z" style="fill: rgb(255, 255, 255); transform-origin: 324.315px 253.05px;" id="elv0eixm1cd2" class="animable"></path><path d="M326.37,250.65h.25l-.19,3.65h-.25Z" style="fill: rgb(255, 255, 255); transform-origin: 326.4px 252.475px;" id="elaj549a6pytg" class="animable"></path><path d="M329.84,250.8l-.18,3.5h-.25l0-.58a1.28,1.28,0,0,1-1.11.64,1.21,1.21,0,0,1-1.23-1.31,1.38,1.38,0,0,1,1.37-1.31,1.11,1.11,0,0,1,1,.64l.08-1.58Zm-.36,2.25a1,1,0,0,0-1-1.07,1.12,1.12,0,0,0-1.12,1.07,1,1,0,0,0,1,1.07A1.14,1.14,0,0,0,329.48,253.05Z" style="fill: rgb(255, 255, 255); transform-origin: 328.453px 252.58px;" id="el52uh7m5303f" class="animable"></path><path d="M331.66,253.05a1.37,1.37,0,0,1,1.38-1.31,1.11,1.11,0,0,1,1.06.64l-.21.12A.91.91,0,0,0,333,252a1.11,1.11,0,0,0-1.12,1.07,1,1,0,0,0,1,1.07,1.09,1.09,0,0,0,.93-.53l.2.13a1.32,1.32,0,0,1-1.14.64A1.21,1.21,0,0,1,331.66,253.05Z" style="fill: rgb(255, 255, 255); transform-origin: 332.877px 253.059px;" id="el2om74itcqu5" class="animable"></path><path d="M337.13,251.8l-.13,2.5h-.26l0-.57a1.26,1.26,0,0,1-1.1.63,1.22,1.22,0,0,1-1.23-1.31,1.38,1.38,0,0,1,1.36-1.31,1.15,1.15,0,0,1,1.05.62l0-.56Zm-.32,1.25a1,1,0,0,0-1-1.07,1.12,1.12,0,0,0-1.12,1.07,1,1,0,0,0,1,1.07A1.13,1.13,0,0,0,336.81,253.05Z" style="fill: rgb(255, 255, 255); transform-origin: 335.768px 253.05px;" id="elrifdq5wwe7" class="animable"></path><path d="M338,250.65h.25L338,254.3h-.25Z" style="fill: rgb(255, 255, 255); transform-origin: 338px 252.475px;" id="elpoc3t3ne25g" class="animable"></path><path d="M339,250.65h.25L339,254.3h-.25Z" style="fill: rgb(255, 255, 255); transform-origin: 339px 252.475px;" id="el0b8n4fbjwyel" class="animable"></path></g></g><path d="M356.31,253.34a1,1,0,0,1-1,1h-1.51l.18-3.5h1.4a.86.86,0,0,1,.87.92.88.88,0,0,1-.49.76A.86.86,0,0,1,356.31,253.34Zm-2.08-2.29-.07,1.34h1.13a.71.71,0,0,0,.69-.67.62.62,0,0,0-.62-.67Zm1.81,2.29a.65.65,0,0,0-.65-.7h-1.25l-.07,1.41h1.24A.75.75,0,0,0,356,253.34Z" style="fill: rgb(255, 255, 255); transform-origin: 355.055px 252.59px;" id="el9yjrw2x0ktb" class="animable"></path><path d="M357.05,250.65h.25l-.19,3.65h-.26Z" style="fill: rgb(255, 255, 255); transform-origin: 357.075px 252.475px;" id="el0n0iovpbr2l" class="animable"></path><path d="M360.06,251.8l-.13,2.5h-.25l0-.48a1,1,0,0,1-.92.54.87.87,0,0,1-.92-1l.08-1.55h.26l-.09,1.55a.66.66,0,0,0,.7.77.93.93,0,0,0,.93-1l.07-1.32Z" style="fill: rgb(255, 255, 255); transform-origin: 358.945px 253.081px;" id="elv6fs0w8ej4" class="animable"></path><path d="M363.12,253.06s0,.08,0,.12h-2.27a1,1,0,0,0,1,.94,1,1,0,0,0,.89-.46l.21.13a1.31,1.31,0,0,1-1.12.57,1.2,1.2,0,0,1-1.25-1.31,1.34,1.34,0,0,1,1.36-1.31A1.17,1.17,0,0,1,363.12,253.06Zm-2.26-.13h2a.92.92,0,0,0-.93-1A1.07,1.07,0,0,0,360.86,252.93Z" style="fill: rgb(255, 255, 255); transform-origin: 361.852px 253.051px;" id="elaot2lmjy2t" class="animable"></path><path d="M364.22,252l-.09,1.63c0,.44.21.45.73.41v.22c-.67.1-1-.06-1-.63L364,252h-.55l0-.24H364l0-.63.26-.07,0,.7H365l0,.24Z" style="fill: rgb(255, 255, 255); transform-origin: 364.225px 252.674px;" id="el9ilh5auvftj" class="animable"></path><path d="M365.19,253.05a1.38,1.38,0,0,1,1.38-1.31,1.22,1.22,0,0,1,1.25,1.31,1.39,1.39,0,0,1-1.38,1.31A1.22,1.22,0,0,1,365.19,253.05Zm2.37,0a1,1,0,0,0-1-1.07,1.14,1.14,0,0,0-1.12,1.07,1,1,0,0,0,1,1.07A1.12,1.12,0,0,0,367.56,253.05Z" style="fill: rgb(255, 255, 255); transform-origin: 366.505px 253.05px;" id="el25bufngamjs" class="animable"></path><path d="M368.24,253.05a1.39,1.39,0,0,1,1.39-1.31,1.22,1.22,0,0,1,1.24,1.31,1.38,1.38,0,0,1-1.38,1.31A1.23,1.23,0,0,1,368.24,253.05Zm2.38,0a1,1,0,0,0-1-1.07,1.12,1.12,0,0,0-1.12,1.07,1,1,0,0,0,1,1.07A1.13,1.13,0,0,0,370.62,253.05Z" style="fill: rgb(255, 255, 255); transform-origin: 369.555px 253.05px;" id="el88ofr8a8zg3" class="animable"></path><path d="M372,252l-.09,1.63c0,.44.22.45.73.41v.22c-.66.1-1-.06-1-.63l.08-1.63h-.55l0-.24h.55l0-.63.26-.07,0,.7h.75l0,.24Z" style="fill: rgb(255, 255, 255); transform-origin: 371.95px 252.674px;" id="elgn9o7y5vv7" class="animable"></path><path d="M375.43,252.74l-.08,1.56h-.25l.08-1.56a.66.66,0,0,0-.7-.76.93.93,0,0,0-.93,1l-.07,1.32h-.25l.19-3.5h.25l-.08,1.47a1,1,0,0,1,.93-.53A.87.87,0,0,1,375.43,252.74Z" style="fill: rgb(255, 255, 255); transform-origin: 374.335px 252.55px;" id="el4wg608mtdj2" class="animable"></path><path d="M283.09,292.76l.23-.13a.94.94,0,0,0,1,.7c.58,0,.89-.3.91-.7s-.34-.58-.86-.75-1.09-.36-1.06-1a1,1,0,0,1,1.11-.94,1.11,1.11,0,0,1,1.09.74l-.24.12a.86.86,0,0,0-.87-.6.74.74,0,0,0-.82.67c0,.42.32.55.82.72s1.14.4,1.1,1a1.06,1.06,0,0,1-1.2,1A1.17,1.17,0,0,1,283.09,292.76Z" style="fill: rgb(255, 255, 255); transform-origin: 284.3px 291.767px;" id="eltz9upfez8q" class="animable"></path><path d="M288.76,292.28a1.38,1.38,0,0,1-1.36,1.31,1.1,1.1,0,0,1-1-.64l-.09,1.58H286l.19-3.5h.25l0,.58a1.25,1.25,0,0,1,1.11-.64A1.21,1.21,0,0,1,288.76,292.28Zm-.25,0a1,1,0,0,0-1-1.07,1.12,1.12,0,0,0-1.12,1.07,1,1,0,0,0,1,1.07A1.12,1.12,0,0,0,288.51,292.28Z" style="fill: rgb(255, 255, 255); transform-origin: 287.382px 292.75px;" id="el9d9mj9gpk59" class="animable"></path><path d="M291.73,292.29s0,.08,0,.12h-2.27a1,1,0,0,0,1,.94,1,1,0,0,0,.89-.46l.21.13a1.3,1.3,0,0,1-1.12.57,1.18,1.18,0,0,1-1.24-1.31,1.33,1.33,0,0,1,1.36-1.31A1.19,1.19,0,0,1,291.73,292.29Zm-2.27-.12h2a.91.91,0,0,0-.92-1A1.08,1.08,0,0,0,289.46,292.17Z" style="fill: rgb(255, 255, 255); transform-origin: 290.465px 292.281px;" id="elra9mob2qfv" class="animable"></path><path d="M294.83,291l-.13,2.5h-.25l0-.56a1.29,1.29,0,0,1-1.11.62,1.22,1.22,0,0,1-1.23-1.31A1.38,1.38,0,0,1,293.5,291a1.14,1.14,0,0,1,1.05.62l0-.56Zm-.32,1.25a1,1,0,0,0-1-1.07,1.12,1.12,0,0,0-1.11,1.07,1,1,0,0,0,1,1.07A1.11,1.11,0,0,0,294.51,292.28Z" style="fill: rgb(255, 255, 255); transform-origin: 293.468px 292.28px;" id="elknkapasnr4" class="animable"></path><path d="M297.05,293.53l-1.27-1.23-.06,1.23h-.25l.18-3.5h.25l-.11,2.14,1.33-1.14h.35l-1.41,1.2,1.33,1.3Z" style="fill: rgb(255, 255, 255); transform-origin: 296.47px 291.78px;" id="el0r7du064b98" class="animable"></path><path d="M300.06,292.29s0,.08,0,.12h-2.27a1,1,0,0,0,1,.94,1,1,0,0,0,.89-.46l.21.13a1.31,1.31,0,0,1-1.12.57,1.19,1.19,0,0,1-1.25-1.31A1.35,1.35,0,0,1,298.9,291,1.17,1.17,0,0,1,300.06,292.29Zm-2.26-.12h2a.92.92,0,0,0-.93-1A1.07,1.07,0,0,0,297.8,292.17Z" style="fill: rgb(255, 255, 255); transform-origin: 298.79px 292.296px;" id="elmw3a8m60uq" class="animable"></path><path d="M301.8,291v.24a.87.87,0,0,0-.89.91l-.07,1.39h-.25l.13-2.5H301l0,.49A.89.89,0,0,1,301.8,291Z" style="fill: rgb(255, 255, 255); transform-origin: 301.195px 292.27px;" id="elrxmwn5f5esf" class="animable"></path><g id="el2mzucmb9jle"><g style="opacity: 0.6; transform-origin: 327.474px 291.796px;" class="animable"><path d="M325.15,293.53h-.27l.16-3.11-1.4,2.15h-.05l-1.18-2.15-.17,3.11H322l.18-3.5h.33l1.15,2.07L325,290h.34Z" style="fill: rgb(255, 255, 255); transform-origin: 323.67px 291.765px;" id="eln8se1nqvrym" class="animable"></path><path d="M328.15,291l-.13,2.5h-.25l0-.47a1,1,0,0,1-.92.53.87.87,0,0,1-.92-1L326,291h.26l-.09,1.56a.66.66,0,0,0,.7.76.93.93,0,0,0,.93-1l.07-1.32Z" style="fill: rgb(255, 255, 255); transform-origin: 327.035px 292.281px;" id="el1g4sr3uy163" class="animable"></path><path d="M329.44,291.27l-.09,1.63c0,.44.21.45.73.41l0,.22c-.66.1-1-.06-1-.63l.08-1.63h-.55V291h.55l0-.63.26-.07,0,.7h.75l0,.24Z" style="fill: rgb(255, 255, 255); transform-origin: 329.39px 291.929px;" id="elruo3wuzxn8s" class="animable"></path><path d="M332.94,292.29s0,.08,0,.12h-2.27a1,1,0,0,0,1,.94,1,1,0,0,0,.89-.46l.22.13a1.33,1.33,0,0,1-1.12.57,1.19,1.19,0,0,1-1.25-1.31,1.34,1.34,0,0,1,1.36-1.31A1.18,1.18,0,0,1,332.94,292.29Zm-2.26-.12h2a.92.92,0,0,0-.93-1A1.07,1.07,0,0,0,330.68,292.17Z" style="fill: rgb(255, 255, 255); transform-origin: 331.676px 292.281px;" id="elhb9i6p1sftt" class="animable"></path></g></g><path d="M356.06,293.53l-1.67-1.73-.09,1.73H354l.18-3.5h.27l-.09,1.63,1.79-1.63h.36l-1.86,1.7,1.73,1.8Z" style="fill: rgb(255, 255, 255); transform-origin: 355.255px 291.78px;" id="el53eh7c4wuy4" class="animable"></path><path d="M359.05,292.29s0,.08,0,.12h-2.27a1,1,0,0,0,1,.94,1,1,0,0,0,.89-.46l.22.13a1.33,1.33,0,0,1-1.12.57,1.19,1.19,0,0,1-1.25-1.31,1.34,1.34,0,0,1,1.36-1.31A1.18,1.18,0,0,1,359.05,292.29Zm-2.26-.12h2a.92.92,0,0,0-.93-1A1.07,1.07,0,0,0,356.79,292.17Z" style="fill: rgb(255, 255, 255); transform-origin: 357.786px 292.281px;" id="el4m9t5876lhh" class="animable"></path><path d="M361.7,291l-1.22,2.73a1.11,1.11,0,0,1-1,.77v-.23c.33,0,.6-.22.78-.59l.06-.13-1-2.55h.27l.89,2.23,1-2.23Z" style="fill: rgb(255, 255, 255); transform-origin: 360.51px 292.75px;" id="el37nm2l11zov" class="animable"></path><path d="M364.71,292.28a1.38,1.38,0,0,1-1.37,1.31,1.11,1.11,0,0,1-1-.64l-.08,1.58H362l.18-3.5h.25l0,.58a1.26,1.26,0,0,1,1.11-.64A1.22,1.22,0,0,1,364.71,292.28Zm-.25,0a1,1,0,0,0-1-1.07,1.14,1.14,0,0,0-1.12,1.07,1,1,0,0,0,1,1.07A1.12,1.12,0,0,0,364.46,292.28Z" style="fill: rgb(255, 255, 255); transform-origin: 363.357px 292.75px;" id="elxkilhq1m1ib" class="animable"></path><path d="M367.83,291l-.13,2.5h-.25l0-.56a1.29,1.29,0,0,1-1.11.62,1.22,1.22,0,0,1-1.23-1.31A1.38,1.38,0,0,1,366.5,291a1.15,1.15,0,0,1,1.05.62l0-.56Zm-.32,1.25a1,1,0,0,0-1-1.07,1.14,1.14,0,0,0-1.12,1.07,1,1,0,0,0,1,1.07A1.11,1.11,0,0,0,367.51,292.28Z" style="fill: rgb(255, 255, 255); transform-origin: 366.468px 292.28px;" id="el9n6jfl1ykt" class="animable"></path><path d="M371.11,290l-.18,3.5h-.25l0-.58a1.27,1.27,0,0,1-1.11.64,1.21,1.21,0,0,1-1.23-1.31,1.38,1.38,0,0,1,1.36-1.31,1.12,1.12,0,0,1,1,.64l.08-1.58Zm-.37,2.25a1,1,0,0,0-1-1.07,1.12,1.12,0,0,0-1.12,1.07,1,1,0,0,0,1,1.07A1.12,1.12,0,0,0,370.74,292.28Z" style="fill: rgb(255, 255, 255); transform-origin: 369.723px 291.78px;" id="el1uiaqwuwfcyh" class="animable"></path><path d="M293.05,242.79a1.19,1.19,0,0,0-1.18,1.12,1.05,1.05,0,0,0,1.07,1.13,1.19,1.19,0,0,0,1.18-1.13A1,1,0,0,0,293.05,242.79Z" style="fill: rgb(255, 255, 255); transform-origin: 292.997px 243.914px;" id="el43lflz3ujls" class="animable"></path><path d="M297.14,242.79a1.19,1.19,0,0,0-1.18,1.12A1.05,1.05,0,0,0,297,245a1.19,1.19,0,0,0,1.18-1.13A1,1,0,0,0,297.14,242.79Z" style="fill: rgb(255, 255, 255); transform-origin: 297.071px 243.895px;" id="eloeq27c5snr" class="animable"></path><path d="M299.47,240.64H291a.9.9,0,0,0-.9.85l-.26,4.85a.8.8,0,0,0,.81.85h8.51a.9.9,0,0,0,.9-.85l.26-4.85A.8.8,0,0,0,299.47,240.64ZM297,245.69H292.9a1.67,1.67,0,0,1-1.68-1.78,1.9,1.9,0,0,1,1.87-1.77,1.67,1.67,0,0,1,1.68,1.77,1.84,1.84,0,0,1-.48,1.13h1.38a1.69,1.69,0,0,1-.36-1.13,1.9,1.9,0,0,1,1.87-1.77,1.67,1.67,0,0,1,1.68,1.77A1.9,1.9,0,0,1,297,245.69Z" style="fill: rgb(255, 255, 255); transform-origin: 295.08px 243.914px;" id="elzbfhy0vkav" class="animable"></path><path d="M368,242.19l-3.45-2.35-.18,3.45h0l-2-1.38-.4.56,2.12,1.44-2.27,1.45.34.56,2.18-1.38h0l-.18,3.45,3.69-2.35-2.53-1.73Zm-2.84-1.1,1.62,1.1-1.73,1.1Zm-.29,5.64.11-2.19,1.61,1.1Z" style="fill: rgb(255, 255, 255); transform-origin: 364.91px 243.915px;" id="elv2trxhxgo0d" class="animable"></path><g id="el9ev2sz1g6iu"><g style="opacity: 0.6; transform-origin: 330.605px 243.91px;" class="animable"><polygon points="328.02 247.35 329.02 247.35 329.38 240.47 328.38 240.47 328.02 247.35" style="fill: rgb(255, 255, 255); transform-origin: 328.7px 243.91px;" id="elwn6fa9rwo8b" class="animable"></polygon><polygon points="332.19 240.47 331.82 247.35 332.82 247.35 333.19 240.47 332.19 240.47" style="fill: rgb(255, 255, 255); transform-origin: 332.505px 243.91px;" id="elziezrjk9l5a" class="animable"></polygon></g></g><path d="M292.7,279.94l-2.14,1.82H288.7l-.14,2.68h1.86l1.95,1.83a.28.28,0,0,0,.45-.25l.3-5.84A.25.25,0,0,0,292.7,279.94Z" style="fill: rgb(255, 255, 255); transform-origin: 290.844px 283.097px;" id="el5banv0qy6mg" class="animable"></path><path d="M294.22,281.33a2.55,2.55,0,0,1-.19,3.54c-.34.36.16.89.5.53a3.33,3.33,0,0,0,.25-4.6c-.31-.36-.87.17-.56.53Z" style="fill: rgb(255, 255, 255); transform-origin: 294.75px 283.1px;" id="el3j1puxyt6g4" class="animable"></path><path d="M295.31,279.42a5.31,5.31,0,0,1-.39,7.36c-.34.36.16.89.5.54a6.1,6.1,0,0,0,.45-8.43c-.31-.36-.87.17-.56.53Z" style="fill: rgb(255, 255, 255); transform-origin: 296.077px 283.102px;" id="el6bdqkzdrmfc" class="animable"></path><g id="elk3jyziti29a"><g style="opacity: 0.6; transform-origin: 328.504px 283.1px;" class="animable"><path d="M331.56,284.43a4.26,4.26,0,0,0,.48-1.54c.06-.58-.84-.57-.9,0a3.19,3.19,0,0,1-.23.86Z" style="fill: rgb(255, 255, 255); transform-origin: 331.476px 283.444px;" id="eludmvhr8yjec" class="animable"></path><path d="M330.52,284.46c-1.43,1.78-4.77,1.27-4.78-1.57a.45.45,0,0,0-.9,0,3.51,3.51,0,0,0,2.28,3.4l-.05,1.12h2.27l.06-1.13a3.69,3.69,0,0,0,1.71-1.19Z" style="fill: rgb(255, 255, 255); transform-origin: 327.974px 284.927px;" id="els9b3r2syxch" class="animable"></path><path d="M327.53,280.19a1.29,1.29,0,0,1,1.08-.65,1.12,1.12,0,0,1,1.14,1.2l-.09,1.69.66.69a2.14,2.14,0,0,0,.08-.44l.1-1.94a1.83,1.83,0,0,0-1.85-1.95,2,2,0,0,0-1.63.85Z" style="fill: rgb(255, 255, 255); transform-origin: 328.762px 280.955px;" id="el0b0lputul3jo" class="animable"></path><path d="M329.94,283.84l-.52-.54v0l-2.08-2.19v0l-.67-.71v0l-1.1-1.17-.56.53,1.58,1.67-.07,1.24a1.84,1.84,0,0,0,1.85,1.95,2,2,0,0,0,1-.27l2.24,2.36.56-.54-2.2-2.32Zm-1.55,0a1.14,1.14,0,0,1-1.14-1.2l0-.49,1.52,1.61A1.42,1.42,0,0,1,328.39,283.88Z" style="fill: rgb(255, 255, 255); transform-origin: 328.59px 282.97px;" id="ellt04ixggevk" class="animable"></path></g></g><path d="M360.89,279a.61.61,0,0,0-.59.57.52.52,0,0,0,.53.56.6.6,0,0,0,.6-.56A.54.54,0,0,0,360.89,279Z" style="fill: rgb(255, 255, 255); transform-origin: 360.865px 279.565px;" id="elg91cqyk8y4r" class="animable"></path><path d="M360.77,281.36a.59.59,0,0,0-.59.56.53.53,0,0,0,.53.57.6.6,0,0,0,.59-.57A.52.52,0,0,0,360.77,281.36Z" style="fill: rgb(255, 255, 255); transform-origin: 360.74px 281.925px;" id="elq6qb1s8vpgj" class="animable"></path><path d="M360.65,283.71a.61.61,0,0,0-.6.57.54.54,0,0,0,.54.56.6.6,0,0,0,.59-.56A.53.53,0,0,0,360.65,283.71Z" style="fill: rgb(255, 255, 255); transform-origin: 360.616px 284.275px;" id="el3pxp565qzrg" class="animable"></path><path d="M363.08,279a.6.6,0,0,0-.59.57.52.52,0,0,0,.53.56.61.61,0,0,0,.6-.56A.54.54,0,0,0,363.08,279Z" style="fill: rgb(255, 255, 255); transform-origin: 363.055px 279.565px;" id="el1crstojbf6vj" class="animable"></path><path d="M363,281.36a.61.61,0,0,0-.6.56.54.54,0,0,0,.54.57.6.6,0,0,0,.59-.57A.52.52,0,0,0,363,281.36Z" style="fill: rgb(255, 255, 255); transform-origin: 362.965px 281.925px;" id="elxdoucd0249" class="animable"></path><path d="M362.83,283.71a.61.61,0,0,0-.59.57.53.53,0,0,0,.54.56.6.6,0,0,0,.59-.56A.53.53,0,0,0,362.83,283.71Z" style="fill: rgb(255, 255, 255); transform-origin: 362.805px 284.275px;" id="elr8hvukim3lr" class="animable"></path><path d="M362.71,286.07a.59.59,0,0,0-.59.56.53.53,0,0,0,.53.57.62.62,0,0,0,.6-.57A.54.54,0,0,0,362.71,286.07Z" style="fill: rgb(255, 255, 255); transform-origin: 362.684px 286.635px;" id="elle4a1nk1o6d" class="animable"></path><path d="M365.21,280.13a.59.59,0,0,0,.59-.56.53.53,0,0,0-.53-.57.6.6,0,0,0-.59.57A.52.52,0,0,0,365.21,280.13Z" style="fill: rgb(255, 255, 255); transform-origin: 365.24px 279.565px;" id="elljh533fl76e" class="animable"></path><path d="M365.15,281.36a.61.61,0,0,0-.6.56.54.54,0,0,0,.54.57.6.6,0,0,0,.59-.57A.52.52,0,0,0,365.15,281.36Z" style="fill: rgb(255, 255, 255); transform-origin: 365.115px 281.925px;" id="elpjigf2tledf" class="animable"></path><path d="M365,283.71a.61.61,0,0,0-.59.57.52.52,0,0,0,.53.56.6.6,0,0,0,.6-.56A.54.54,0,0,0,365,283.71Z" style="fill: rgb(255, 255, 255); transform-origin: 364.975px 284.275px;" id="elqbckvwdh69" class="animable"></path><g id="eld3jcxbeguwn"><g style="opacity: 0.1; transform-origin: 315.605px 234.405px;" class="animable"><path d="M295.8,360.72h37.57L320.06,108.09H289.82a10.29,10.29,0,0,0-7.18,3Z" style="fill: rgb(255, 255, 255); transform-origin: 308.005px 234.405px;" id="elrc698194r5n" class="animable"></path><polygon points="340.12 360.72 348.57 360.72 335.26 108.09 326.81 108.09 340.12 360.72" style="fill: rgb(255, 255, 255); transform-origin: 337.69px 234.405px;" id="elzjuh9kp3p6k" class="animable"></polygon></g></g></g><g id="freepik--Character--inject-40" class="animable animator-active" style="transform-origin: 201.1px 293.07px;"><path d="M202.17,369h20.5L211.9,281.23a7.83,7.83,0,0,0-7.56-6.73H114.89L128,369Z" style="fill: rgb(64, 123, 255); transform-origin: 168.78px 321.75px;" id="eldqyed5643l6" class="animable"></path><g id="eluh5oln8qvw8"><path d="M202.17,369h20.5L211.9,281.23a7.83,7.83,0,0,0-7.56-6.73H114.89L128,369Z" style="fill: rgb(255, 255, 255); opacity: 0.1; transform-origin: 168.78px 321.75px;" class="animable"></path></g><path d="M137.16,369h-20.5l-10.78-87.77a5.83,5.83,0,0,1,5.9-6.73h7a7.83,7.83,0,0,1,7.55,6.73Z" style="fill: rgb(64, 123, 255); transform-origin: 121.485px 321.749px;" id="el90tcsbl1zt" class="animable"></path><g id="el0zkaibsleerc"><path d="M137.16,369h-20.5l-10.78-87.77a5.83,5.83,0,0,1,5.9-6.73h7a7.83,7.83,0,0,1,7.55,6.73Z" style="opacity: 0.2; transform-origin: 121.485px 321.749px;" class="animable"></path></g><path d="M149.24,380.86l-3.71-42.45a4,4,0,0,0-3.52-3.66l-1.53-.2a5.42,5.42,0,0,1-4.72-4.91l-.68-7.74a5.44,5.44,0,0,1,5.41-5.9H106.23a5.44,5.44,0,0,0-5.41,5.9l.68,7.74a5.42,5.42,0,0,0,4.72,4.91l1.53.2a4,4,0,0,1,3.52,3.66L115,380.86a6,6,0,0,0,6,5.47h34.26A6,6,0,0,1,149.24,380.86Z" style="fill: rgb(64, 123, 255); transform-origin: 128.03px 351.165px;" id="el6kij7azbe5h" class="animable"></path><g id="eli9qdyi7g7od"><g style="opacity: 0.3; transform-origin: 128.03px 351.165px;" class="animable"><path d="M149.24,380.86l-3.71-42.45a4,4,0,0,0-3.52-3.66l-1.53-.2a5.42,5.42,0,0,1-4.72-4.91l-.68-7.74a5.44,5.44,0,0,1,5.41-5.9H106.23a5.44,5.44,0,0,0-5.41,5.9l.68,7.74a5.42,5.42,0,0,0,4.72,4.91l1.53.2a4,4,0,0,1,3.52,3.66L115,380.86a6,6,0,0,0,6,5.47h34.26A6,6,0,0,1,149.24,380.86Z" id="elptnb40mkb9" class="animable" style="transform-origin: 128.03px 351.165px;"></path></g></g><path d="M243.52,327.78A12.92,12.92,0,0,1,256.38,316H226.55a12.9,12.9,0,0,0-12.85,11.78l-2.95,33.65h29.83Z" style="fill: rgb(64, 123, 255); transform-origin: 233.565px 338.715px;" id="elh9wzxl6mms5" class="animable"></path><g id="ellml05682rf"><path d="M243.52,327.78A12.92,12.92,0,0,1,256.38,316H226.55a12.9,12.9,0,0,0-12.85,11.78l-2.95,33.65h29.83Z" style="opacity: 0.3; transform-origin: 233.565px 338.715px;" class="animable"></path></g><path d="M157.64,386.33h7a0,0,0,0,1,0,0v17.6a1.73,1.73,0,0,1-1.73,1.73h-2.53a2.73,2.73,0,0,1-2.73-2.73v-16.6A0,0,0,0,1,157.64,386.33Z" style="fill: rgb(38, 50, 56); transform-origin: 161.14px 395.995px;" id="elo4dolby1og" class="animable"></path><path d="M246,386.33h7a0,0,0,0,1,0,0v17.6a1.73,1.73,0,0,1-1.73,1.73h-2.53a2.73,2.73,0,0,1-2.73-2.73v-16.6A0,0,0,0,1,246,386.33Z" style="fill: rgb(38, 50, 56); transform-origin: 249.5px 395.995px;" id="elktl3tkniyk8" class="animable"></path><path d="M122.7,386.33h7a0,0,0,0,1,0,0v17.6a1.73,1.73,0,0,1-1.73,1.73h-2.53a2.73,2.73,0,0,1-2.73-2.73v-16.6A0,0,0,0,1,122.7,386.33Z" style="fill: rgb(38, 50, 56); transform-origin: 126.2px 395.995px;" id="el16w451qret9" class="animable"></path><path d="M211.09,386.33h7a0,0,0,0,1,0,0v17.6a1.73,1.73,0,0,1-1.73,1.73h-2.53a2.73,2.73,0,0,1-2.73-2.73v-16.6A0,0,0,0,1,211.09,386.33Z" style="fill: rgb(38, 50, 56); transform-origin: 214.59px 395.995px;" id="elu7gpfobm8te" class="animable"></path><path d="M175.39,341.25H163.07a5.43,5.43,0,0,0-5.43,5.42V356a5.42,5.42,0,0,0,5.43,5.42h12.32Z" style="fill: rgb(64, 123, 255); transform-origin: 166.515px 351.335px;" id="el2kvxxp6uxst" class="animable"></path><g id="el05tzoid3m7pd"><path d="M175.39,341.25H163.07a5.43,5.43,0,0,0-5.43,5.42V356a5.42,5.42,0,0,0,5.43,5.42h12.32Z" style="opacity: 0.3; transform-origin: 166.515px 351.335px;" class="animable"></path></g><rect x="170.39" y="341.25" width="70.19" height="20.18" rx="5.42" style="fill: rgb(64, 123, 255); transform-origin: 205.485px 351.34px;" id="elhxfpc4ixbjv" class="animable"></rect><path d="M269.63,316H256.38a12.92,12.92,0,0,0-12.86,11.78l-2.94,33.65h-71l-2.94-33.65A12.92,12.92,0,0,0,153.74,316H140.49a5.44,5.44,0,0,0-5.41,5.9l.68,7.74a5.42,5.42,0,0,0,4.72,4.91l1.53.2a4,4,0,0,1,3.52,3.66l3.71,42.45a6,6,0,0,0,6,5.47h99.7a6,6,0,0,0,6-5.47l3.71-42.45a4,4,0,0,1,3.52-3.66l1.53-.2a5.42,5.42,0,0,0,4.72-4.91l.68-7.74A5.43,5.43,0,0,0,269.63,316Z" style="fill: rgb(64, 123, 255); transform-origin: 205.09px 351.165px;" id="el505c0186be9" class="animable"></path><g id="el8ic7nrh9l0n"><path d="M269.63,316H256.38a12.92,12.92,0,0,0-12.86,11.78l-2.94,33.65h-71l-2.94-33.65A12.92,12.92,0,0,0,153.74,316H140.49a5.44,5.44,0,0,0-5.41,5.9l.68,7.74a5.42,5.42,0,0,0,4.72,4.91l1.53.2a4,4,0,0,1,3.52,3.66l3.71,42.45a6,6,0,0,0,6,5.47h99.7a6,6,0,0,0,6-5.47l3.71-42.45a4,4,0,0,1,3.52-3.66l1.53-.2a5.42,5.42,0,0,0,4.72-4.91l.68-7.74A5.43,5.43,0,0,0,269.63,316Z" style="opacity: 0.1; transform-origin: 205.09px 351.165px;" class="animable"></path></g><polygon points="272.68 397.54 281.66 394.24 283.71 401.94 275.74 404.5 272.68 397.54" style="fill: rgb(250, 178, 123); transform-origin: 278.195px 399.37px;" id="elyldulgte6o" class="animable"></polygon><path d="M286,402.12a.22.22,0,0,1-.23-.12.21.21,0,0,1,0-.26c.12-.13,2.76-3.05,4.46-3.13a1.2,1.2,0,0,1,.86.29.86.86,0,0,1,.33,1c-.22.62-1.35,1.22-2.51,1.6A16.26,16.26,0,0,1,286,402.12Zm.62-.53c1.81-.35,4.16-1.13,4.39-1.87,0-.1.05-.25-.2-.47a.62.62,0,0,0-.53-.17,1.63,1.63,0,0,0-.44.08A10.81,10.81,0,0,0,286.64,401.59Z" style="fill: rgb(64, 123, 255); transform-origin: 288.597px 400.365px;" id="elllj506ghkq8" class="animable"></path><path d="M285.9,402.15a.23.23,0,0,1-.16-.17c0-.12-.6-2.72.27-4.08a1.74,1.74,0,0,1,1.11-.78c.63-.13.92.11,1,.36.54,1-1,3.73-2,4.59a.18.18,0,0,1-.09,0A.23.23,0,0,1,285.9,402.15Zm1.21-4.56a1.22,1.22,0,0,0-.67.53,5.36,5.36,0,0,0-.31,3.26c.93-1.06,1.89-3.12,1.62-3.73,0-.06-.11-.21-.52-.11l-.12,0Z" style="fill: rgb(64, 123, 255); transform-origin: 286.885px 399.617px;" id="el6wk7037zwfw" class="animable"></path><path d="M284.65,401.13l-10.18,3.31a.86.86,0,0,0-.59.9l.85,8.88a1.43,1.43,0,0,0,1.55,1.3,1.33,1.33,0,0,0,.3-.06c3.65-1.25,6.85-2.52,11.42-4,5.39-1.75,4.23-.66,10.6-2.63,3.84-1.2,3.12-5.76,1.44-5.45-7.72,1.48-9.22-.51-12.94-2.23A3.39,3.39,0,0,0,284.65,401.13Z" style="fill: rgb(38, 50, 56); transform-origin: 287.637px 408.218px;" id="elnjk3ig2iez8" class="animable"></path><g id="elvbk18kqw7ed"><polygon points="281.66 394.24 272.68 397.54 273.97 400.47 282.53 397.5 281.66 394.24" style="opacity: 0.1; transform-origin: 277.605px 397.355px;" class="animable"></polygon></g><path d="M172.34,210.65s-.65-12,16.77-12.32,15.44,13.42,14.07,17.68,5.11,9.92,5.11,9.92-4.08.08-5.42-2.09,4.12,6,2.92,11.55-3.34,11-.37,15.47c0,0-5.34-2.59-5.13-7.69,0,0,.4,4.21-3.81,3.25s-16.19-5-24.14-2.74c-3.93,1.13-5.38-.92-5.65-3.61s-1.21-6.8-1-1.25a20.4,20.4,0,0,0,.27,2.68s-7-5-2-11c1.49-1.83,5.46-4.17,5.46-7.69S167.24,214.73,172.34,210.65Z" style="fill: rgb(38, 50, 56); transform-origin: 185.225px 224.592px;" id="eldujzz2tnnz" class="animable"></path><path d="M173.79,211.62s-3.58-3-1.22-8.7c0,0-6.08,7.84,2.17,10.2Z" style="fill: rgb(38, 50, 56); transform-origin: 172.576px 208.02px;" id="el6tqoil98tbm" class="animable"></path><path d="M243.49,279.86s-24.71,17.4-31,11.47-11-21.53-11-21.53l10.7-5.2,5.85,14.55a2.85,2.85,0,0,0,3.65,1.59l18.66-6.54a15.18,15.18,0,0,1,1.76-6.47c1.05-1.8,3.33-2.73,4.74-4.26,3.7-4,2.89,1.87,2.89,1.87l1,7.15a3.2,3.2,0,0,1-.28,1.78L249.14,277a3.14,3.14,0,0,1-1.94,1.68Z" style="fill: rgb(250, 178, 123); transform-origin: 226.128px 277.318px;" id="el105zbygkccs" class="animable"></path><path d="M200.14,269s-5.43-13.77-.86-20.39,14.43,13.11,14.43,13.11l.84.43,1.38,2.56s-9.93,3.76-14.7,7.89l-1.5-3.17Z" style="fill: rgb(38, 50, 56); transform-origin: 206.69px 259.926px;" id="eloqkl3cn91u" class="animable"></path><g id="elyemumb778ks"><g style="opacity: 0.2; transform-origin: 206.69px 259.926px;" class="animable"><path d="M200.14,269s-5.43-13.77-.86-20.39,14.43,13.11,14.43,13.11l.84.43,1.38,2.56s-9.93,3.76-14.7,7.89l-1.5-3.17Z" style="fill: rgb(255, 255, 255); transform-origin: 206.69px 259.926px;" id="elhzadzlcbj45" class="animable"></path></g></g><path d="M193.69,316.92s58-7.53,66.11,4.58,22.7,73.3,22.7,73.3l-11.82,4.62s-19.68-36.95-25.63-60l-14.36-.6-39.38,2.95S175.38,323.54,193.69,316.92Z" style="fill: rgb(64, 123, 255); transform-origin: 233.693px 357.013px;" id="elez74c52u00s" class="animable"></path><g id="elm1omnoyxwc7"><path d="M193.69,316.92s58-7.53,66.11,4.58,22.7,73.3,22.7,73.3l-11.82,4.62s-19.68-36.95-25.63-60l-14.36-.6-39.38,2.95S175.38,323.54,193.69,316.92Z" style="fill: rgb(255, 255, 255); opacity: 0.4; transform-origin: 233.693px 357.013px;" class="animable"></path></g><path d="M155.94,259.86c.22,5.87,4.91,16.69,6.76,27.1a138.25,138.25,0,0,1,2.17,24.77s31.72,8.07,46.23-.09a160.72,160.72,0,0,1-2.64-22.17c-.77-16.28-.44-36.25-4.06-40.29-6.3-7-20.2-7.64-33.59-6.71S155.73,254.14,155.94,259.86Z" style="fill: rgb(38, 50, 56); transform-origin: 183.512px 278.713px;" id="elw61tdb3p4h" class="animable"></path><g id="elhm1dlg6wrym"><g style="opacity: 0.1; transform-origin: 183.512px 278.713px;" class="animable"><path d="M155.94,259.86c.22,5.87,4.91,16.69,6.76,27.1a138.25,138.25,0,0,1,2.17,24.77s31.72,8.07,46.23-.09a160.72,160.72,0,0,1-2.64-22.17c-.77-16.28-.44-36.25-4.06-40.29-6.3-7-20.2-7.64-33.59-6.71S155.73,254.14,155.94,259.86Z" style="fill: rgb(255, 255, 255); transform-origin: 183.512px 278.713px;" id="ellqpvboro149" class="animable"></path></g></g><path d="M267.57,396.11l14.81-5.84s2.91.85,1.79,4.41l-14.76,5.38S268.13,400,267.57,396.11Z" style="fill: rgb(64, 123, 255); transform-origin: 275.998px 395.165px;" id="elmi24qqb4d5r" class="animable"></path><path d="M152.09,263.68s-5.58,16.63-3.79,25.71,35.16,9.84,35.16,9.84,4.71,1.45,7.22,1a20.62,20.62,0,0,1,6.36.59,2.48,2.48,0,0,0,2.38-.78l1.52-1.69a2.51,2.51,0,0,0,.55-2.36c-.65-2.31-2.28-6.67-5.25-6.53-4,.19-12,3.9-12,3.9L163,285.84a3,3,0,0,1-2.2-3.66l3.92-16.39Z" style="fill: rgb(250, 178, 123); transform-origin: 174.765px 282.278px;" id="el4ttfoyvxwe4" class="animable"></path><path d="M149.65,263.08s4.75-16.58,13.67-19.46,4,22.36,4,22.36l.47,1-.54,3.35s-11.85-3.57-19.19-3.14l.86-4Z" style="fill: rgb(38, 50, 56); transform-origin: 158.367px 256.861px;" id="el4i7gfgrk1be" class="animable"></path><g id="elekoa0efdrc5"><g style="opacity: 0.2; transform-origin: 158.367px 256.861px;" class="animable"><path d="M149.65,263.08s4.75-16.58,13.67-19.46,4,22.36,4,22.36l.47,1-.54,3.35s-11.85-3.57-19.19-3.14l.86-4Z" style="fill: rgb(255, 255, 255); transform-origin: 158.367px 256.861px;" id="elvi49wkclrws" class="animable"></path></g></g><path d="M194.87,243.65l-.6-.19c-5.31-1.8-4.83-5.58-3.6-9.28l-8.56-8.73c.54,5,1.11,16.51-3.1,16.59l1.79,1.52,3,3.57,7.48,7.56,1.08-.21,1.79-1.48,1.44-3.82Z" style="fill: rgb(250, 178, 123); transform-origin: 187.3px 240.07px;" id="eln4jyzw1ktwl" class="animable"></path><path d="M180.08,241.68s8,6.2,11.33,12.49a14.26,14.26,0,0,0,2.2-6.54c.06-2.21-1.85-4.11-1.85-5.69l3.76,1.59s6.16,9.51,3.44,14.86c0,0-1.89-4.77-6.58-2.86a1.72,1.72,0,0,1-2-.27,1.48,1.48,0,0,0-.9-.5c-1.27-.21-4.12-.16-6.55,3.68,0,0-1.71-11-6.23-16.36Z" style="fill: rgb(255, 255, 255); transform-origin: 188.177px 250.06px;" id="elj8vmykw9eme" class="animable"></path><g id="elg6ijr4zu70r"><path d="M185.62,229.05l5.09,5.17a16,16,0,0,0-.7,2.64c-2-.48-5-2.61-5-4.8A8.87,8.87,0,0,1,185.62,229.05Z" style="opacity: 0.2; isolation: isolate; transform-origin: 187.86px 232.955px;" class="animable"></path></g><path d="M177.75,217.75c2.07,7.91,2.77,11.3,7.62,14.61,7.3,5,16.56.72,16.91-7.65.3-7.53-3.13-19.19-11.59-20.84a11.15,11.15,0,0,0-12.94,13.88Z" style="fill: rgb(250, 178, 123); transform-origin: 189.826px 219.075px;" id="elxtfx6g37zzj" class="animable"></path><path d="M191.14,217.48c.13.64.58,1.1,1,1s.67-.67.53-1.33-.57-1.11-1-1S191,216.82,191.14,217.48Z" style="fill: rgb(38, 50, 56); transform-origin: 191.905px 217.314px;" id="elsekedfdg56r" class="animable"></path><path d="M198.51,216c.13.65.58,1.1,1,1s.67-.67.54-1.33-.57-1.11-1-1S198.38,215.37,198.51,216Z" style="fill: rgb(38, 50, 56); transform-origin: 199.28px 215.834px;" id="el3fuuo6o2lnw" class="animable"></path><path d="M198.87,214.77l1.48-.76S199.78,215.39,198.87,214.77Z" style="fill: rgb(38, 50, 56); transform-origin: 199.61px 214.47px;" id="elmtjfcwbnbo" class="animable"></path><path d="M196,217.65a18,18,0,0,0,3.14,3.71,2.88,2.88,0,0,1-2.23.9Z" style="fill: rgb(237, 137, 62); transform-origin: 197.57px 219.957px;" id="el1oulhkyqr5b" class="animable"></path><path d="M186.71,215a.49.49,0,0,1-.16,0,.32.32,0,0,1-.11-.44h0a3.81,3.81,0,0,1,2.94-1.9.33.33,0,0,1,.33.32.32.32,0,0,1-.3.33,3.2,3.2,0,0,0-2.42,1.59A.32.32,0,0,1,186.71,215Z" style="fill: rgb(38, 50, 56); transform-origin: 188.052px 213.833px;" id="el3nwrra8lyrf" class="animable"></path><path d="M200.56,212.34a.48.48,0,0,1-.17-.05,3.16,3.16,0,0,0-2.87-.19.32.32,0,0,1-.44-.13h0a.33.33,0,0,1,.15-.44,3.81,3.81,0,0,1,3.49.2.32.32,0,0,1,.14.43.35.35,0,0,1-.3.18Z" style="fill: rgb(38, 50, 56); transform-origin: 198.971px 211.77px;" id="el5hqdvboq40u" class="animable"></path><path d="M191.5,216.22l1.48-.76S192.41,216.84,191.5,216.22Z" style="fill: rgb(38, 50, 56); transform-origin: 192.24px 215.92px;" id="elsim787xsh2d" class="animable"></path><path d="M197.15,227.06a4.85,4.85,0,0,0,.91-.3.19.19,0,0,0,.12-.24h0a.2.2,0,0,0-.25-.09,5.19,5.19,0,0,1-4.65-.26.19.19,0,1,0-.21.31A5.29,5.29,0,0,0,197.15,227.06Z" style="fill: rgb(38, 50, 56); transform-origin: 195.574px 226.677px;" id="elsb6esfzz80k" class="animable"></path><path d="M185,206.52s2.23,2.35,8.83,4.06l-1.89-2.67s7.26,3.58,11.89,2.67c0,0-6.85-13.88-21.21-8.14,0,0-15.2,14-6.86,30,0,0,4.5,2.6,5.44-2.19,0,0,2,3.22,0,5.19a8.23,8.23,0,0,0,2.34-8.75c-1.73-5.46-.79-7.8,1.46-12.24A8.25,8.25,0,0,0,185,206.52Z" style="fill: rgb(38, 50, 56); transform-origin: 188.545px 218.244px;" id="elmq952qlqn1n" class="animable"></path><polygon points="244.28 402.85 247.1 411.14 255.01 408.65 253.73 399.54 244.28 402.85" style="fill: rgb(250, 178, 123); transform-origin: 249.645px 405.34px;" id="el4zdchayag7e" class="animable"></polygon><path d="M257.9,408.63a.24.24,0,0,1-.23-.14.25.25,0,0,1,.06-.26c.13-.12,3-2.76,4.75-2.67a1.2,1.2,0,0,1,.83.37.86.86,0,0,1,.23,1c-.28.6-1.46,1.09-2.65,1.35A16.86,16.86,0,0,1,257.9,408.63Zm.67-.46c1.83-.17,4.24-.72,4.55-1.44,0-.09.07-.24-.16-.49a.67.67,0,0,0-.51-.22,2.28,2.28,0,0,0-.45,0A10.74,10.74,0,0,0,258.57,408.17Z" style="fill: rgb(64, 123, 255); transform-origin: 260.634px 407.094px;" id="elxajj12npmhc" class="animable"></path><path d="M257.78,408.65a.23.23,0,0,1-.15-.19c0-.12-.33-2.76.67-4a1.73,1.73,0,0,1,1.18-.66c.64-.08.9.19,1,.45.45,1-1.4,3.61-2.43,4.37a.17.17,0,0,1-.1,0A.2.2,0,0,1,257.78,408.65Zm1.64-4.42a1.22,1.22,0,0,0-.72.46,5.42,5.42,0,0,0-.62,3.21c1-1,2.18-2.92,2-3.55,0-.06-.09-.22-.51-.16l-.13,0Z" style="fill: rgb(64, 123, 255); transform-origin: 259.064px 406.222px;" id="elomfce1fvd5" class="animable"></path><path d="M256.63,407.51l-10.46,2.3a.86.86,0,0,0-.68.83l0,8.93a1.43,1.43,0,0,0,1.42,1.44l.3,0c3.76-.89,7.06-1.83,11.76-2.86,5.54-1.21,4.28-.24,10.81-1.58,3.93-.81,3.67-5.43,2-5.28-7.82.71-9.12-1.41-12.66-3.49A3.41,3.41,0,0,0,256.63,407.51Z" style="fill: rgb(38, 50, 56); transform-origin: 259.211px 414.202px;" id="elazu27p9kq3m" class="animable"></path><g id="elry5qrgpso4h"><polygon points="253.73 399.54 244.28 402.85 245.55 406.59 254.28 403.44 253.73 399.54" style="opacity: 0.1; transform-origin: 249.28px 403.065px;" class="animable"></polygon></g><path d="M166.1,311.89S163.35,342,178,342.83s46.21-7.1,46.21-7.1,1.42,25,9.08,43.92,8.55,22.8,8.55,22.8l12.9-4.38s-4.91-67.41-14.36-78.68c-11.59-13.84-65.25-5.67-65.25-5.67Z" style="fill: rgb(64, 123, 255); transform-origin: 210.318px 356.887px;" id="el529p5vhy7m5" class="animable"></path><g id="eluujqyrg0i3h"><path d="M166.1,311.89S163.35,342,178,342.83s46.21-7.1,46.21-7.1,1.42,25,9.08,43.92,8.55,22.8,8.55,22.8l12.9-4.38s-4.91-67.41-14.36-78.68c-11.59-13.84-65.25-5.67-65.25-5.67Z" style="fill: rgb(255, 255, 255); opacity: 0.5; transform-origin: 210.318px 356.887px;" class="animable"></path></g><path d="M239.52,401.78l16.22-5.84a3.71,3.71,0,0,1,1,4.14l-15.62,5.8S239.27,405.4,239.52,401.78Z" style="fill: rgb(64, 123, 255); transform-origin: 248.247px 400.91px;" id="elochi8z65js" class="animable"></path><path d="M178.1,223.45a6,6,0,0,0,3.51,2.92c2,.6,3-1.18,2.53-3.1-.47-1.72-2.08-4.11-4.11-3.88a2.7,2.7,0,0,0-2.28,3.06A2.65,2.65,0,0,0,178.1,223.45Z" style="fill: rgb(250, 178, 123); transform-origin: 180.988px 222.931px;" id="elvtka0njntiq" class="animable"></path><path d="M241.39,255.26l6.76,1.21a.94.94,0,0,1,.73,1.22l-4.27,15.51a1.16,1.16,0,0,1-1.29.86l-6.77-1.2a.94.94,0,0,1-.72-1.22l4.26-15.52A1.18,1.18,0,0,1,241.39,255.26Z" style="fill: rgb(64, 123, 255); transform-origin: 242.355px 264.66px;" id="elo2qqpygriw" class="animable"></path><g id="elmnxouw3comq"><path d="M241.39,255.26l6.76,1.21a.94.94,0,0,1,.73,1.22l-4.27,15.51a1.16,1.16,0,0,1-1.29.86l-6.77-1.2a.94.94,0,0,1-.72-1.22l4.26-15.52A1.18,1.18,0,0,1,241.39,255.26Z" style="fill: rgb(255, 255, 255); opacity: 0.5; transform-origin: 242.355px 264.66px;" class="animable"></path></g><path d="M236.55,272.86l6.77,1.2a1.06,1.06,0,0,0,.61-.09l-6.38-1.14a1,1,0,0,1-.73-1.22l4.27-15.51a1.19,1.19,0,0,1,.68-.77l-.38-.07a1.18,1.18,0,0,0-1.3.86l-4.26,15.52A.94.94,0,0,0,236.55,272.86Z" style="fill: rgb(64, 123, 255); transform-origin: 239.856px 264.66px;" id="elmtl0goyovor" class="animable"></path><path d="M243,256.73a.67.67,0,0,1-.63.61.52.52,0,0,1-.54-.58.67.67,0,0,1,.63-.61A.52.52,0,0,1,243,256.73Z" style="fill: rgb(38, 50, 56); transform-origin: 242.415px 256.745px;" id="el2t8hzqhmtf2" class="animable"></path><path d="M213.11,304.31c-12.06,0-14.31-22.24-15.39-32.95-.16-1.58-.3-3-.44-3.91-1.06-7.26-6.16-18.6-9.28-24-3.21-5.53-6.69-16.08-6.72-16.19l.33-.11c0,.11,3.5,10.62,6.69,16.12s8.26,16.8,9.33,24.1c.13,1,.27,2.34.44,3.93,1.07,10.6,3.29,32.63,15,32.63h.07c13.52-.11,24.5-30.62,24.61-30.92l.33.11a106.82,106.82,0,0,1-7.23,15.51c-6,10.34-11.92,15.6-17.7,15.65Z" style="fill: rgb(64, 123, 255); transform-origin: 209.68px 265.73px;" id="elt4v7no9kc4" class="animable"></path><path d="M181.65,223.68c.2.61.81,1,.2,1.16a1.17,1.17,0,1,1-.72-2.22C181.74,222.42,181.45,223.07,181.65,223.68Z" style="fill: rgb(255, 255, 255); transform-origin: 181.177px 223.755px;" id="eldej4159frng" class="animable"></path><path d="M180.36,223.83s-.36,0,.93,4l.52-.17s-1-2.85-.31-3.16A1.63,1.63,0,0,0,180.36,223.83Z" style="fill: rgb(255, 255, 255); transform-origin: 181.062px 225.83px;" id="eldq63j3eigyv" class="animable"></path><path d="M195.13,240.59a22.18,22.18,0,0,0,.92-6.9l-.34.13a22.17,22.17,0,0,1-.92,6.67c-1.62,5.49,2,24.15,2.12,24.94l.34-.07C197.21,265.17,193.53,246,195.13,240.59Z" style="fill: rgb(64, 123, 255); transform-origin: 195.812px 249.56px;" id="eluesdgo4sg8m" class="animable"></path><polygon points="236.98 276.52 238.3 273.1 237.72 272.93 236.41 276.31 236.98 276.52" style="fill: rgb(64, 123, 255); transform-origin: 237.355px 274.725px;" id="el2nznn8uhbj7" class="animable"></polygon><g id="elstgjhlo6kgp"><polygon points="236.98 276.52 238.3 273.1 237.72 272.93 236.41 276.31 236.98 276.52" style="opacity: 0.3; transform-origin: 237.355px 274.725px;" class="animable"></polygon></g><polygon points="198.28 311.58 230.39 311.58 245.36 284.66 227.81 284.66 217.21 303.4 212.86 311.03 199.54 310.61 198.28 311.58" style="fill: rgb(64, 123, 255); transform-origin: 221.82px 298.12px;" id="el135u7q1dd00n" class="animable"></polygon><g id="elput6otxtqr"><polygon points="198.28 311.58 230.39 311.58 245.36 284.66 227.81 284.66 217.21 303.4 212.86 311.03 199.54 310.61 198.28 311.58" style="fill: rgb(255, 255, 255); opacity: 0.6; transform-origin: 221.82px 298.12px;" class="animable"></polygon></g><path d="M227.33,284.66l-14.71,25.5H181.51v.65a.78.78,0,0,0,.77.77h31.34l15-26.92Z" style="fill: rgb(64, 123, 255); transform-origin: 205.065px 298.12px;" id="el6i8riuxel25" class="animable"></path><path d="M225.3,165.13h-36a3.17,3.17,0,0,0-3.14,3l-.87,16.59a2.81,2.81,0,0,0,2.83,3h12.17l5.49,6.69,6.19-6.69h12.17a3.18,3.18,0,0,0,3.14-3l.87-16.59A2.8,2.8,0,0,0,225.3,165.13Z" style="fill: rgb(64, 123, 255); transform-origin: 206.72px 179.77px;" id="el7f4y7ufoqx5" class="animable"></path><g id="elmq09nfj0xtf"><path d="M225.3,165.13h-36a3.17,3.17,0,0,0-3.14,3l-.87,16.59a2.81,2.81,0,0,0,2.83,3h12.17l5.49,6.69,6.19-6.69h12.17a3.18,3.18,0,0,0,3.14-3l.87-16.59A2.8,2.8,0,0,0,225.3,165.13Z" style="fill: rgb(255, 255, 255); opacity: 0.7; transform-origin: 206.72px 179.77px;" class="animable"></path></g><path d="M199.49,176.31a1.33,1.33,0,1,1,1.33,1.33A1.34,1.34,0,0,1,199.49,176.31Z" style="fill: rgb(64, 123, 255); transform-origin: 200.82px 176.31px;" id="elx45li7wegc" class="animable"></path><path d="M205.37,176.31a1.33,1.33,0,1,1,1.33,1.33A1.34,1.34,0,0,1,205.37,176.31Z" style="fill: rgb(64, 123, 255); transform-origin: 206.7px 176.31px;" id="elgbrk7av30bg" class="animable"></path><path d="M211.25,176.31a1.33,1.33,0,1,1,1.33,1.33A1.34,1.34,0,0,1,211.25,176.31Z" style="fill: rgb(64, 123, 255); transform-origin: 212.58px 176.31px;" id="elnb9204oy53" class="animable"></path></g><defs>     <filter id="active" height="200%">         <feMorphology in="SourceAlpha" result="DILATED" operator="dilate" radius="2"></feMorphology>                <feFlood flood-color="#32DFEC" flood-opacity="1" result="PINK"></feFlood>        <feComposite in="PINK" in2="DILATED" operator="in" result="OUTLINE"></feComposite>        <feMerge>            <feMergeNode in="OUTLINE"></feMergeNode>            <feMergeNode in="SourceGraphic"></feMergeNode>        </feMerge>    </filter>    <filter id="hover" height="200%">        <feMorphology in="SourceAlpha" result="DILATED" operator="dilate" radius="2"></feMorphology>                <feFlood flood-color="#ff0000" flood-opacity="0.5" result="PINK"></feFlood>        <feComposite in="PINK" in2="DILATED" operator="in" result="OUTLINE"></feComposite>        <feMerge>            <feMergeNode in="OUTLINE"></feMergeNode>            <feMergeNode in="SourceGraphic"></feMergeNode>        </feMerge>            <feColorMatrix type="matrix" values="0   0   0   0   0                0   1   0   0   0                0   0   0   0   0                0   0   0   1   0 "></feColorMatrix>    </filter></defs></svg>